<svg xmlns="http://www.w3.org/2000/svg" viewBox="0 0 284 100" role="img" aria-label="holos">
  <!-- mark -->
  <g transform="translate(10 10)" fill="#111111" stroke="#111111">
    <circle cx="40" cy="40" r="37" fill="none" stroke-width="2.5"/>
    <line x1="40" y1="12" x2="40" y2="68" stroke-width="2.5" stroke-linecap="round"/>
    <rect x="20" y="30" width="15" height="15"/>
    <rect x="45" y="30" width="15" height="15" fill="none" stroke-width="2.5"/>
  </g>
  <!-- wordmark: DejaVu Sans Mono Bold, flattened to paths (font-independent) -->
  <g transform="translate(118 13.73)" fill="#111111">
<g transform="translate(0.000 48.268) scale(0.025391 -0.025391)"><path d="M1071 727V0H780V682Q780 803 745.5 855.0Q711 907 633 907Q553 907 508.0 836.5Q463 766 463 641V0H172V1556H463V952Q494 1045 569.0 1096.0Q644 1147 750 1147Q909 1147 990.0 1041.5Q1071 936 1071 727Z"/></g>
    <g transform="translate(31.307 48.268) scale(0.025391 -0.025391)"><path d="M616 909Q511 909 451.0 816.5Q391 724 391 559Q391 394 451.0 301.5Q511 209 616 209Q722 209 782.0 301.5Q842 394 842 559Q842 724 782.0 816.5Q722 909 616 909ZM98 559Q98 830 238.5 988.5Q379 1147 616 1147Q854 1147 994.5 988.5Q1135 830 1135 559Q1135 288 994.5 129.5Q854 -29 616 -29Q379 -29 238.5 129.5Q98 288 98 559Z"/></g>
    <g transform="translate(62.613 48.268) scale(0.025391 -0.025391)"><path d="M387 467V1331H90V1556H680V467Q680 335 721.0 280.0Q762 225 860 225H1094V0H778Q569 0 478.0 108.0Q387 216 387 467Z"/></g>
    <g transform="translate(93.920 48.268) scale(0.025391 -0.025391)"><path d="M616 909Q511 909 451.0 816.5Q391 724 391 559Q391 394 451.0 301.5Q511 209 616 209Q722 209 782.0 301.5Q842 394 842 559Q842 724 782.0 816.5Q722 909 616 909ZM98 559Q98 830 238.5 988.5Q379 1147 616 1147Q854 1147 994.5 988.5Q1135 830 1135 559Q1135 288 994.5 129.5Q854 -29 616 -29Q379 -29 238.5 129.5Q98 288 98 559Z"/></g>
    <g transform="translate(125.227 48.268) scale(0.025391 -0.025391)"><path d="M991 1085V829Q910 881 822.5 907.5Q735 934 647 934Q549 934 499.0 905.5Q449 877 449 821Q449 741 663 691L674 688L758 668Q918 630 992.5 545.5Q1067 461 1067 317Q1067 144 953.5 57.5Q840 -29 612 -29Q511 -29 405.0 -11.5Q299 6 190 41V297Q287 242 387.5 213.0Q488 184 582 184Q685 184 738.0 214.0Q791 244 791 301Q791 357 753.5 387.0Q716 417 575 451L494 469Q326 507 249.0 588.0Q172 669 172 805Q172 967 289.0 1057.0Q406 1147 618 1147Q713 1147 807.5 1131.5Q902 1116 991 1085Z"/></g>
  </g>
</svg>
